<svg width="66" height="66" viewBox="0 0 66 66" fill="none" xmlns="http://www.w3.org/2000/svg">
<path d="M62.829 32.1168C62.3897 15.5626 48.5979 2.48386 32.0438 2.92313C15.4896 3.36239 2.41083 17.1542 2.8501 33.7083C3.23525 48.2232 13.8723 60.0352 27.6215 62.4614L27.0804 42.0686L21.0825 42.2277L20.8438 33.2309L26.8417 33.0717L26.6427 25.5744C26.4891 19.7864 31.0725 14.9531 36.8605 14.7995L44.3579 14.6006L44.5966 23.5974L38.5987 23.7566C36.9493 23.8003 35.6356 25.1857 35.6793 26.8351L35.8385 32.833L44.8353 32.5943L45.0741 41.5911L36.0772 41.8298L36.6303 62.6725C51.7352 60.7712 63.242 47.6813 62.829 32.1168Z" fill="black"/>
</svg>
