<svg width="66" height="66" viewBox="0 0 66 66" fill="none" xmlns="http://www.w3.org/2000/svg">
<path fill-rule="evenodd" clip-rule="evenodd" d="M33.2593 2.65293C16.6928 2.31459 2.99129 15.4701 2.653 32.0341C2.31471 48.5981 15.4676 62.3021 32.0342 62.6404C48.5982 62.9787 62.3022 49.8233 62.6405 33.2592C62.9788 16.6952 49.8234 2.99122 33.2593 2.65293ZM32.6384 50.1952C22.9704 49.9977 15.3024 41.9895 15.5003 32.2965C15.6983 22.6035 23.6869 14.915 33.3549 15.1125C38.0789 15.209 41.9925 17.0317 44.9641 19.923L39.9292 24.7662L39.9294 24.7562C38.1281 22.9641 35.817 22.0167 33.215 21.9635C27.4412 21.8456 22.6498 26.6388 22.5316 32.4301C22.4134 38.2164 27.0047 43.2162 32.7785 43.3341C38.0175 43.4411 41.6431 40.5095 42.4621 36.4004L32.9241 36.2056L33.0638 29.3645L49.5229 29.7007C49.7189 30.8799 49.8113 32.107 49.7851 33.3918C49.5804 43.4147 42.7438 50.4015 32.6384 50.1952V50.1952Z" fill="black"/>
</svg>
