<svg width="67" height="67" viewBox="0 0 67 67" fill="none" xmlns="http://www.w3.org/2000/svg">
<path fill-rule="evenodd" clip-rule="evenodd" d="M32.0849 4.03879C15.5236 4.71265 2.65553 18.6723 3.32939 35.2336C3.86908 48.4977 12.9053 59.3518 24.9821 62.8387C26.4915 63.04 27.0169 62.1178 26.9849 61.331C26.956 60.6191 26.8225 58.2601 26.7203 55.7496C19.2454 57.4424 17.1659 54.2994 16.4978 52.6377C16.1256 51.7896 14.556 49.1888 13.2531 48.5287C12.1811 48.0093 10.6259 46.684 13.1348 46.5443C15.4939 46.4108 17.2699 48.5529 17.8685 49.4293C20.7508 53.8533 25.0079 52.404 26.6994 51.547C26.8824 49.588 27.6159 48.2445 28.4472 47.4601C21.7472 46.9821 14.6728 44.6803 14.2063 33.2148C14.0737 29.955 15.1254 27.2099 16.951 25.0339C16.6207 24.2967 15.4466 21.267 16.9275 17.0783C16.9275 17.0783 19.4059 16.1893 25.2957 19.8153C27.6663 19.0433 30.2005 18.6024 32.7484 18.4988C35.2962 18.3951 37.8579 18.6287 40.2833 19.2055C45.8575 15.0755 48.4015 15.7977 48.4015 15.7977C50.2178 19.8522 49.2937 22.9673 49.0244 23.7289C51.0207 25.7494 52.2905 28.3624 52.4247 31.6597C52.8927 43.1627 45.9897 45.9957 39.3507 47.0164C40.4754 47.9089 41.4853 49.6693 41.5997 52.4795C41.7628 56.4887 41.8564 59.7126 41.8976 60.7242C41.9296 61.5111 42.5298 62.4249 44.0163 62.0642C49.8851 59.813 54.9002 55.7782 58.3558 50.5276C61.8114 45.277 63.5335 39.0749 63.2798 32.7943C62.6059 16.233 48.6462 3.36493 32.0849 4.03879Z" fill="black"/>
</svg>
