<svg width="192" height="192" viewBox="0 0 192 192" fill="none" xmlns="http://www.w3.org/2000/svg">
<path d="M64.0559 19.08C52.6269 22.2298 41.2756 25.6548 30.0119 29.352C28.9833 29.6851 28.0691 30.3005 27.3732 31.1279C26.6773 31.9553 26.2278 32.9615 26.0759 34.032C19.4279 83.916 34.7879 120.312 53.1119 144.288C60.8701 154.541 70.1208 163.573 80.5559 171.084C84.7079 174.012 88.3799 176.124 91.2719 177.48C92.7119 178.164 93.8879 178.62 94.7879 178.896C95.1815 179.034 95.5873 179.134 95.9999 179.196C96.4076 179.13 96.809 179.029 97.1999 178.896C98.1119 178.62 99.2879 178.164 100.728 177.48C103.608 176.124 107.292 174 111.444 171.084C121.879 163.573 131.13 154.541 138.888 144.288C157.212 120.324 172.572 83.916 165.924 34.032C165.773 32.961 165.324 31.9542 164.628 31.1265C163.932 30.2989 163.017 29.6839 161.988 29.352C154.176 26.796 140.988 22.632 127.944 19.092C114.624 15.48 102.372 12.804 95.9999 12.804C89.6399 12.804 77.3759 15.48 64.0559 19.092V19.08Z" fill="black"/>
<path d="M60.8639 6.72C73.8839 3.18 87.7199 0 95.9999 0C104.28 0 118.116 3.18 131.136 6.72C144.456 10.32 157.884 14.58 165.78 17.16C169.081 18.2502 172.008 20.2496 174.224 22.9284C176.44 25.6072 177.856 28.8569 178.308 32.304C185.46 86.028 168.864 125.844 148.728 152.184C140.189 163.452 130.008 173.374 118.524 181.62C114.553 184.473 110.346 186.982 105.948 189.12C102.588 190.704 98.9759 192 95.9999 192C93.0239 192 89.4239 190.704 86.0519 189.12C81.6541 186.983 77.4468 184.473 73.4759 181.62C61.9923 173.374 51.8109 163.452 43.2719 152.184C23.1359 125.844 6.53994 86.028 13.6919 32.304C14.1442 28.8569 15.5597 25.6072 17.7757 22.9284C19.9918 20.2496 22.9186 18.2502 26.2199 17.16C37.6822 13.4017 49.2336 9.9207 60.8639 6.72V6.72Z" fill="white"/>
<path d="M114 78C114.002 81.7239 112.849 85.3567 110.7 88.3979C108.55 91.439 105.511 93.7387 102 94.98L106.62 118.86C106.788 119.729 106.762 120.623 106.544 121.481C106.325 122.338 105.92 123.137 105.357 123.819C104.794 124.501 104.087 125.051 103.287 125.428C102.486 125.805 101.613 126 100.728 126H91.272C90.3884 125.998 89.516 125.802 88.7172 125.424C87.9184 125.046 87.2129 124.496 86.6511 123.814C86.0894 123.132 85.6852 122.334 85.4676 121.478C85.2499 120.621 85.2241 119.728 85.392 118.86L90 94.98C86.8891 93.8801 84.1404 91.9463 82.0543 89.3899C79.9681 86.8335 78.6248 83.7529 78.171 80.4847C77.7173 77.2164 78.1706 73.8864 79.4815 70.8584C80.7923 67.8303 82.9103 65.2209 85.6038 63.3152C88.2974 61.4095 91.463 60.2808 94.7547 60.0525C98.0464 59.8243 101.337 60.5052 104.268 62.0208C107.199 63.5365 109.657 65.8286 111.373 68.6467C113.09 71.4648 113.998 74.7004 114 78V78Z" fill="#3D3D3D"/>
</svg>
